<svg xmlns="http://www.w3.org/2000/svg" viewBox="0 0 1600 1000" role="img" aria-label="5A 8 45@52O==K9 <>AB">
  <defs>
    <linearGradient id="sky" x1="0" x2="0" y1="0" y2="1">
      <stop offset="0" stop-color="#223329"/>
      <stop offset="0.42" stop-color="#46624a"/>
      <stop offset="1" stop-color="#d8ddd2"/>
    </linearGradient>
    <linearGradient id="mist" x1="0" x2="0" y1="0" y2="1">
      <stop offset="0" stop-color="#f5f4f0" stop-opacity="0"/>
      <stop offset="0.72" stop-color="#f5f4f0" stop-opacity=".38"/>
      <stop offset="1" stop-color="#f5f4f0" stop-opacity=".92"/>
    </linearGradient>
    <radialGradient id="light" cx="50%" cy="42%" r="65%">
      <stop offset="0" stop-color="#e7eadc" stop-opacity=".42"/>
      <stop offset=".5" stop-color="#8fa07d" stop-opacity=".12"/>
      <stop offset="1" stop-color="#172219" stop-opacity=".35"/>
    </radialGradient>
  </defs>
  <rect width="1600" height="1000" fill="url(#sky)"/>
  <rect width="1600" height="1000" fill="url(#light)"/>

  <g opacity=".95">
    <path d="M0 560 C170 500 220 390 360 420 C500 450 560 570 690 510 C820 450 860 310 1020 340 C1190 372 1225 520 1360 500 C1470 482 1530 430 1600 445 L1600 1000 L0 1000 Z" fill="#334637"/>
    <path d="M0 640 C210 570 310 585 420 610 C565 645 650 675 790 625 C930 575 1000 565 1135 620 C1290 684 1450 602 1600 575 L1600 1000 L0 1000 Z" fill="#26362c" opacity=".9"/>
  </g>

  <g fill="#17241b" opacity=".9">
    <path d="M118 700 L150 210 L183 700 Z"/>
    <path d="M260 740 L298 160 L340 740 Z"/>
    <path d="M1320 740 L1362 150 L1404 740 Z"/>
    <path d="M1465 700 L1498 220 L1530 700 Z"/>
  </g>

  <g fill="#28402f" opacity=".96">
    <circle cx="150" cy="250" r="150"/>
    <circle cx="300" cy="205" r="178"/>
    <circle cx="1370" cy="205" r="180"/>
    <circle cx="1490" cy="270" r="145"/>
    <circle cx="525" cy="265" r="135"/>
    <circle cx="1080" cy="260" r="145"/>
  </g>
  <g fill="#4f6a50" opacity=".42">
    <circle cx="210" cy="370" r="170"/>
    <circle cx="740" cy="335" r="170"/>
    <circle cx="1250" cy="360" r="180"/>
  </g>

  <g transform="translate(0 38)">
    <path d="M535 920 L720 565 L880 565 L1065 920 Z" fill="#7b7467"/>
    <path d="M608 920 L752 585 L848 585 L992 920 Z" fill="#b9b0a0"/>
    <path d="M642 818 H958 L934 770 H666 Z M690 714 H910 L891 675 H709 Z M731 638 H869 L854 610 H746 Z" fill="#5e5b52" opacity=".75"/>
    <path d="M470 875 L692 540" stroke="#d4d0c5" stroke-width="16" stroke-linecap="round"/>
    <path d="M1130 875 L908 540" stroke="#d4d0c5" stroke-width="16" stroke-linecap="round"/>
    <path d="M510 838 L700 555" stroke="#5d5b53" stroke-width="8" stroke-linecap="round"/>
    <path d="M1090 838 L900 555" stroke="#5d5b53" stroke-width="8" stroke-linecap="round"/>
  </g>

  <rect width="1600" height="1000" fill="url(#mist)"/>
</svg>
